<?xml version="1.0" encoding="UTF-8" standalone="no"?>
<!-- Created with Inkscape (http://www.inkscape.org/) -->

<svg
   width="200mm"
   height="200mm"
   viewBox="0 0 200 200"
   version="1.1"
   id="svg5"
   inkscape:version="1.3 (0e150ed6c4, 2023-07-21)"
   sodipodi:docname="Logo.svg"
   xml:space="preserve"
   xmlns:inkscape="http://www.inkscape.org/namespaces/inkscape"
   xmlns:sodipodi="http://sodipodi.sourceforge.net/DTD/sodipodi-0.dtd"
   xmlns:xlink="http://www.w3.org/1999/xlink"
   xmlns="http://www.w3.org/2000/svg"
   xmlns:svg="http://www.w3.org/2000/svg"><sodipodi:namedview
     id="namedview7"
     pagecolor="#505050"
     bordercolor="#eeeeee"
     borderopacity="1"
     inkscape:showpageshadow="0"
     inkscape:pageopacity="0"
     inkscape:pagecheckerboard="0"
     inkscape:deskcolor="#505050"
     inkscape:document-units="mm"
     showgrid="false"
     inkscape:zoom="0.70710678"
     inkscape:cx="512.65241"
     inkscape:cy="328.09754"
     inkscape:window-width="1920"
     inkscape:window-height="1001"
     inkscape:window-x="1680"
     inkscape:window-y="0"
     inkscape:window-maximized="1"
     inkscape:current-layer="layer1" /><defs
     id="defs2"><linearGradient
       inkscape:collect="always"
       id="linearGradient56969"><stop
         style="stop-color:#00ecfd;stop-opacity:0;"
         offset="0"
         id="stop56967" /><stop
         style="stop-color:#00ecfd;stop-opacity:1;"
         offset="1"
         id="stop56965" /></linearGradient><linearGradient
       inkscape:collect="always"
       xlink:href="#linearGradient56969"
       id="linearGradient56973"
       x1="18.480827"
       y1="94.628906"
       x2="246.95132"
       y2="94.628906"
       gradientUnits="userSpaceOnUse"
       gradientTransform="matrix(0.89533848,0,0,0.89533848,-16.684122,15.433049)" /></defs><g
     inkscape:label="Ebene 1"
     inkscape:groupmode="layer"
     id="layer1"
     transform="matrix(1,0,0,1.019802,-11.587974,-4.7305018)"
     style="fill:#0000ff"><path
       id="path54715"
       style="opacity:1;fill:url(#linearGradient56973);fill-opacity:1;stroke:#ff0000;stroke-width:9.62355;stroke-dasharray:none;stroke-opacity:0"
       d="m 170.33312,121.56208 c 0,0 -2.40841,35.16217 2.1408,42.64067 0,0 -6.69002,1.70564 -8.29561,-4.32966 -1.60559,-6.0353 -4.683,-23.48517 -4.683,-23.48517 0,0 2.9436,-10.23375 9.4998,-14.16983 z m -45.53085,5.66347 11.06948,-0.18564 c 0,0 -3.40602,15.21491 -18.07069,24.86339 l 11.44791,15.95712 c 0,0 -7.0012,1.85547 -8.42038,0.0927 -1.41917,-1.76271 -9.65033,-12.8028 -9.65033,-12.8028 0,0 16.65155,-23.75011 13.7186,-27.08995 z M 90.223811,102.24179 c 0,0 2.50524,-12.299393 53.081679,-18.859487 0,0 36.66124,0 9.0984,-37.261399 0,0 18.5064,13.072312 39.88847,-13.089926 l 0.9461,-0.742189 c 0,0 4.35211,2.041026 2.27068,9.091851 l 2.36526,-0.231943 c 0,0 2.17606,2.45851 1.60839,3.571804 0,0 -11.92097,14.472715 -10.02875,33.398586 0,0 1.13532,22.080183 -16.65155,37.295093 0,0 -14.6647,5.93753 -17.3138,19.8536 l -5.58204,30.70816 c 0,0 -6.812,0.74218 -8.42039,-9.9268 l 5.39283,-32.37808 -26.01801,1.02051 c 0,0 2.08143,10.01956 -15.5162,32.00697 l 12.39403,10.66899 c 1.3124,1.26529 -7.97602,1.1813 -8.41935,1.20253 L 96.262238,157.62629 c 0,0 8.798792,-11.87506 3.879042,-17.8126 0,0 -11.920974,-8.07132 -11.920974,-25.1417 0,0 -3.784444,6.58693 -2.743721,17.25593 0,0 2.176031,15.40047 -19.679097,30.61537 0,0 -18.827581,13.82331 -49.765369,-2.87597 0,0 33.531628,-3.32677 53.578103,-33.91631 8.9e-4,0.006 11.939562,-21.23604 20.596911,-23.51073 z"
       sodipodi:nodetypes="ccscccccccscccccccccccccccccccccccccccccc" /></g></svg>
